<svg width="190" height="147" viewBox="0 0 190 147" fill="none" xmlns="http://www.w3.org/2000/svg">
<path d="M123.813 81.0718C123.813 59.3061 115.959 41.0229 101.005 28.29C87.556 16.863 68.4053 10.4421 47.318 10.4421V28.0723C64.1018 28.0723 79.0566 32.8608 89.2775 41.6759C100.144 50.9263 106.061 64.5299 106.061 81.0718C106.061 107.735 84.3284 129.283 57.3237 129.283C35.3757 129.283 17.3008 111.435 17.3008 89.6693C17.3008 81.0718 20.7436 72.9097 26.8762 67.033C33.0087 61.1562 41.1854 57.7825 50.1153 57.7825C57.7541 57.7825 64.2094 59.9591 68.8357 63.9857C73.3544 67.9036 75.8289 73.4538 75.8289 80.31C75.8289 91.737 67.5446 99.8992 55.6023 99.8992V117.529C77.3351 117.529 93.6886 101.423 93.6886 80.4189C93.6886 68.7742 89.1699 58.2178 80.8856 50.9263C73.0316 44.0701 62.3804 40.3699 50.438 40.3699C36.9895 40.3699 24.4016 45.3761 14.8263 54.6265C5.25091 63.8769 0.0866699 76.3922 0.0866699 89.7781C0.0866699 121.447 25.9079 146.913 57.9692 146.913C94.0114 147.022 123.813 117.638 123.813 81.0718Z" fill="#289B48"/>
<path d="M177.636 125.997L136.909 85.2119C133.273 88.1252 129.091 90.4315 124.364 92.1309C119.636 93.8302 114.606 94.6799 109.273 94.6799C96.0606 94.6799 84.88 90.0989 75.7309 80.9368C66.577 71.7698 62 60.5709 62 47.34C62 34.1091 66.577 22.9101 75.7309 13.7432C84.88 4.58105 96.0606 0 109.273 0C122.485 0 133.668 4.58105 142.822 13.7432C151.971 22.9101 156.545 34.1091 156.545 47.34C156.545 52.6809 155.697 57.7183 154 62.4523C152.303 67.1863 150 71.3741 147.091 75.0156L188 115.983C189.333 117.318 190 118.957 190 120.899C190 122.841 189.273 124.541 187.818 125.997C186.485 127.332 184.788 128 182.727 128C180.667 128 178.97 127.332 177.636 125.997ZM109.273 80.1138C118.364 80.1138 126.092 76.9287 132.458 70.5584C138.819 64.1833 142 56.4438 142 47.34C142 38.2361 138.819 30.4966 132.458 24.1215C126.092 17.7513 118.364 14.5661 109.273 14.5661C100.182 14.5661 92.4533 17.7513 86.0873 24.1215C79.7261 30.4966 76.5455 38.2361 76.5455 47.34C76.5455 56.4438 79.7261 64.1833 86.0873 70.5584C92.4533 76.9287 100.182 80.1138 109.273 80.1138Z" fill="#1F3A85"/>
</svg>
